<svg width="24" height="25" viewBox="0 0 24 25" fill="none" xmlns="http://www.w3.org/2000/svg">
<path opacity="0.4" d="M22 16.441C22 19.231 19.76 21.491 16.97 21.501H16.96H7.05C4.27 21.501 2 19.251 2 16.461V16.451C2 16.451 2.006 12.025 2.014 9.79898C2.015 9.38098 2.495 9.14698 2.822 9.40698C5.198 11.292 9.447 14.729 9.5 14.774C10.21 15.343 11.11 15.664 12.03 15.664C12.95 15.664 13.85 15.343 14.56 14.763C14.613 14.728 18.767 11.394 21.179 9.47798C21.507 9.21698 21.989 9.45098 21.99 9.86798C22 12.077 22 16.441 22 16.441Z" fill="#54408C"/>
<path d="M21.4759 6.174C20.6099 4.542 18.9059 3.5 17.0299 3.5H7.04988C5.17388 3.5 3.46988 4.542 2.60388 6.174C2.40988 6.539 2.50188 6.994 2.82488 7.252L10.2499 13.191C10.7699 13.611 11.3999 13.82 12.0299 13.82C12.0339 13.82 12.0369 13.82 12.0399 13.82C12.0429 13.82 12.0469 13.82 12.0499 13.82C12.6799 13.82 13.3099 13.611 13.8299 13.191L21.2549 7.252C21.5779 6.994 21.6699 6.539 21.4759 6.174Z" fill="#54408C"/>
</svg>
