<svg width="327" height="179" viewBox="0 0 327 179" fill="none" xmlns="http://www.w3.org/2000/svg">
<circle cx="163.5" cy="52" r="39" fill="url(#paint0_linear_279_3405)"/>
<rect x="83.5" y="90" width="160" height="1" fill="#54408C"/>
<path d="M189.026 52.2578H164.349H159.651H134.974L129.167 63.8707H134.419V89.9997H189.581V63.8707H194.833L189.026 52.2578ZM187.232 55.161L190.135 60.9675H167.252L164.349 55.161H187.232ZM136.768 55.161H159.651L156.748 60.9675H133.865L136.768 55.161ZM186.677 87.0965H163.452V76.9352H160.548V87.0965H137.323V63.8707H158.542L160.548 59.8585V72.5804H163.452V59.8585L165.458 63.8707H186.677V87.0965Z" fill="#54408C"/>
<path d="M148.935 75.4844H140.226V78.3876H148.935V75.4844Z" fill="#54408C"/>
<path d="M148.935 81.291H140.226V84.1942H148.935V81.291Z" fill="#54408C"/>
<path d="M154.742 81.291H151.839V84.1942H154.742V81.291Z" fill="#54408C"/>
<path d="M155.296 23.6091L162 21.9006L168.703 23.6077L169.229 16.4091L172.79 10.3269L166.491 7.60075L162 2.04688L157.507 7.60075L151.208 10.3269L154.769 16.4091L155.296 23.6091ZM159.316 9.97994L162 6.663L164.684 9.98139L168.629 11.6899L166.384 15.5266L166.061 19.9409L162 18.9059L157.938 19.9395L157.616 15.5251L155.37 11.6885L159.316 9.97994Z" fill="#F5BE00"/>
<path d="M132.939 26.5719L135.048 22.9705L131.311 21.3519L128.613 18.0146L125.914 21.3505L122.178 22.969L124.287 26.5705L124.599 30.8658L128.613 29.8453L132.628 30.8672L132.939 26.5719ZM130.093 25.6864L129.983 27.1976L128.613 26.8492L127.244 27.1976L127.132 25.6864L126.338 24.3292L127.721 23.7296L128.613 22.6308L129.503 23.7311L130.886 24.3306L130.093 25.6864Z" fill="#F5BE00"/>
<path d="M199.713 26.5719L201.822 22.9705L198.086 21.3519L195.387 18.0146L192.689 21.3505L188.952 22.969L191.061 26.5705L191.373 30.8658L195.387 29.8453L199.402 30.8672L199.713 26.5719ZM196.868 25.6864L196.757 27.1976L195.387 26.8492L194.018 27.1976L193.908 25.6864L193.114 24.3292L194.497 23.7296L195.387 22.6308L196.277 23.7311L197.66 24.3306L196.868 25.6864Z" fill="#F5BE00"/>
<path d="M135.065 34.5942C137.829 36.4377 140.285 38.6877 142.36 41.2832L148.11 48.4673L146.921 38.9563C146.3 33.9903 143.647 29.4192 139.644 26.4173L138.253 25.375L133.999 33.8829L135.065 34.5942ZM139.249 29.8765C141.704 32.199 143.369 35.291 143.939 38.6355C142.106 36.4827 140.026 34.5637 137.732 32.9103L139.249 29.8765Z" fill="#54408C"/>
<path d="M177.079 38.9568L175.891 48.4677L181.64 41.2822C183.716 38.6868 186.171 36.4368 188.935 34.5932L190 33.8819L185.746 25.374L184.355 26.4192C180.353 29.4211 177.699 33.9908 177.079 38.9568ZM186.268 32.9108C183.975 34.5642 181.893 36.4818 180.061 38.636C180.633 35.2914 182.297 32.1995 184.751 29.8769L186.268 32.9108Z" fill="#54408C"/>
<path d="M167.807 49.3549H170.71V43.2727C170.71 36.3006 173.167 29.5128 177.633 24.1549L175.401 22.2969C170.504 28.1745 167.807 35.6241 167.807 43.2727V49.3549Z" fill="#54408C"/>
<path d="M180.871 17.4189H177.968V20.3222H180.871V17.4189Z" fill="#EF5A56"/>
<path d="M185.226 11.6133H182.323V14.5165H185.226V11.6133Z" fill="#EF5A56"/>
<path d="M153.29 49.3549H156.194V43.2727C156.194 35.6227 153.497 28.1745 148.6 22.2969L146.369 24.1549C150.833 29.5128 153.29 36.3006 153.29 43.2727V49.3549Z" fill="#54408C"/>
<path d="M146.032 17.4199H143.129V20.3231H146.032V17.4199Z" fill="#EF5A56"/>
<path d="M141.678 11.6133H138.774V14.5165H141.678V11.6133Z" fill="#EF5A56"/>
<path d="M163.452 24.6777H160.548V27.581H163.452V24.6777Z" fill="#EF5A56"/>
<path d="M163.452 30.4834H160.548V49.3544H163.452V30.4834Z" fill="#54408C"/>
<path d="M204.097 39.1934H201.193V42.0966H204.097V39.1934Z" fill="#EF5A56"/>
<path d="M204.097 45H201.193V47.9032H204.097V45Z" fill="#EF5A56"/>
<path d="M207 42.0967H204.097V44.9999H207V42.0967Z" fill="#EF5A56"/>
<path d="M201.194 42.0967H198.291V44.9999H201.194V42.0967Z" fill="#EF5A56"/>
<path d="M199.742 0H196.839V2.90323H199.742V0Z" fill="#EF5A56"/>
<path d="M199.742 5.80664H196.839V8.70987H199.742V5.80664Z" fill="#EF5A56"/>
<path d="M202.645 2.90332H199.742V5.80655H202.645V2.90332Z" fill="#EF5A56"/>
<path d="M196.839 2.90332H193.936V5.80655H196.839V2.90332Z" fill="#EF5A56"/>
<path d="M122.807 45H119.903V47.9032H122.807V45Z" fill="#EF5A56"/>
<path d="M122.807 50.8066H119.903V53.7099H122.807V50.8066Z" fill="#EF5A56"/>
<path d="M125.71 47.9033H122.807V50.8065H125.71V47.9033Z" fill="#EF5A56"/>
<path d="M119.903 47.9033H117V50.8065H119.903V47.9033Z" fill="#EF5A56"/>
<path d="M122.807 0H119.903V2.90323H122.807V0Z" fill="#EF5A56"/>
<path d="M122.807 5.80664H119.903V8.70987H122.807V5.80664Z" fill="#EF5A56"/>
<path d="M125.71 2.90332H122.807V5.80655H125.71V2.90332Z" fill="#EF5A56"/>
<path d="M119.903 2.90332H117V5.80655H119.903V2.90332Z" fill="#EF5A56"/>
<path d="M32.7989 129.922L36.3731 122.867H40.2872L34.6036 133.332V140H30.9942V133.449L25.3106 122.867H29.2481L32.7989 129.922ZM53.3484 133.426C53.3484 134.52 53.2 135.488 52.9031 136.332C52.6141 137.176 52.1883 137.891 51.6258 138.477C51.0711 139.055 50.3992 139.492 49.6102 139.789C48.8289 140.086 47.9461 140.234 46.9617 140.234C46.0398 140.234 45.1922 140.086 44.4187 139.789C43.6531 139.492 42.9852 139.055 42.4148 138.477C41.8523 137.891 41.4148 137.176 41.1023 136.332C40.7977 135.488 40.6453 134.52 40.6453 133.426C40.6453 131.973 40.9031 130.742 41.4187 129.734C41.9344 128.727 42.6687 127.961 43.6219 127.438C44.575 126.914 45.7117 126.652 47.032 126.652C48.2586 126.652 49.3445 126.914 50.2898 127.438C51.243 127.961 51.9891 128.727 52.5281 129.734C53.075 130.742 53.3484 131.973 53.3484 133.426ZM44.2898 133.426C44.2898 134.285 44.3836 135.008 44.5711 135.594C44.7586 136.18 45.0516 136.621 45.45 136.918C45.8484 137.215 46.368 137.363 47.0086 137.363C47.6414 137.363 48.1531 137.215 48.5437 136.918C48.9422 136.621 49.2312 136.18 49.4109 135.594C49.5984 135.008 49.6922 134.285 49.6922 133.426C49.6922 132.559 49.5984 131.84 49.4109 131.27C49.2312 130.691 48.9422 130.258 48.5437 129.969C48.1453 129.68 47.6258 129.535 46.9852 129.535C46.0398 129.535 45.3523 129.859 44.9227 130.508C44.5008 131.156 44.2898 132.129 44.2898 133.426ZM67.605 126.898V140H64.8628L64.3823 138.324H64.1948C63.9136 138.77 63.562 139.133 63.1402 139.414C62.7183 139.695 62.2534 139.902 61.7456 140.035C61.2378 140.168 60.7105 140.234 60.1636 140.234C59.2261 140.234 58.4097 140.07 57.7144 139.742C57.0191 139.406 56.4761 138.887 56.0855 138.184C55.7027 137.48 55.5112 136.566 55.5112 135.441V126.898H59.0855V134.551C59.0855 135.488 59.2534 136.195 59.5894 136.672C59.9253 137.148 60.4605 137.387 61.1948 137.387C61.9214 137.387 62.4917 137.223 62.9058 136.895C63.3198 136.559 63.6089 136.07 63.773 135.43C63.9448 134.781 64.0308 133.992 64.0308 133.062V126.898H67.605ZM81.4228 122.867C82.9775 122.867 84.2587 123.055 85.2666 123.43C86.2822 123.805 87.0361 124.371 87.5283 125.129C88.0205 125.887 88.2666 126.844 88.2666 128C88.2666 128.781 88.1181 129.465 87.8212 130.051C87.5244 130.637 87.1337 131.133 86.6494 131.539C86.165 131.945 85.6416 132.277 85.0791 132.535L90.1181 140H86.0869L81.997 133.426H80.0634V140H76.4306V122.867H81.4228ZM81.165 125.844H80.0634V130.473H81.2353C82.4384 130.473 83.2978 130.273 83.8134 129.875C84.3369 129.469 84.5986 128.875 84.5986 128.094C84.5986 127.281 84.3173 126.703 83.7548 126.359C83.2001 126.016 82.3369 125.844 81.165 125.844ZM96.6755 126.652C97.8864 126.652 98.9294 126.887 99.8044 127.355C100.679 127.816 101.355 128.488 101.832 129.371C102.308 130.254 102.547 131.332 102.547 132.605V134.34H94.0973C94.1364 135.348 94.4372 136.141 94.9997 136.719C95.57 137.289 96.3591 137.574 97.3669 137.574C98.2028 137.574 98.9684 137.488 99.6637 137.316C100.359 137.145 101.074 136.887 101.808 136.543V139.309C101.16 139.629 100.48 139.863 99.7692 140.012C99.0661 140.16 98.2106 140.234 97.2028 140.234C95.8903 140.234 94.7262 139.992 93.7106 139.508C92.7028 139.023 91.9098 138.285 91.3317 137.293C90.7614 136.301 90.4762 135.051 90.4762 133.543C90.4762 132.012 90.7341 130.738 91.2497 129.723C91.7731 128.699 92.4997 127.934 93.4294 127.426C94.3591 126.91 95.4411 126.652 96.6755 126.652ZM96.6989 129.195C96.0036 129.195 95.4255 129.418 94.9645 129.863C94.5114 130.309 94.2497 131.008 94.1794 131.961H99.195C99.1872 131.43 99.0895 130.957 98.902 130.543C98.7223 130.129 98.4489 129.801 98.0817 129.559C97.7223 129.316 97.2614 129.195 96.6989 129.195ZM110.053 140.234C108.756 140.234 107.651 140 106.737 139.531C105.823 139.055 105.127 138.32 104.651 137.328C104.174 136.336 103.936 135.066 103.936 133.52C103.936 131.918 104.205 130.613 104.745 129.605C105.291 128.59 106.045 127.844 107.006 127.367C107.975 126.891 109.096 126.652 110.37 126.652C111.276 126.652 112.057 126.742 112.713 126.922C113.377 127.094 113.955 127.301 114.448 127.543L113.393 130.309C112.83 130.082 112.307 129.898 111.823 129.758C111.338 129.609 110.854 129.535 110.37 129.535C109.745 129.535 109.225 129.684 108.811 129.98C108.397 130.27 108.088 130.707 107.885 131.293C107.682 131.879 107.58 132.613 107.58 133.496C107.58 134.363 107.69 135.082 107.909 135.652C108.127 136.223 108.444 136.648 108.858 136.93C109.272 137.203 109.776 137.34 110.37 137.34C111.112 137.34 111.772 137.242 112.35 137.047C112.928 136.844 113.491 136.562 114.037 136.203V139.262C113.491 139.605 112.916 139.852 112.315 140C111.721 140.156 110.967 140.234 110.053 140.234ZM121.767 126.652C122.978 126.652 124.021 126.887 124.896 127.355C125.771 127.816 126.446 128.488 126.923 129.371C127.4 130.254 127.638 131.332 127.638 132.605V134.34H119.189C119.228 135.348 119.528 136.141 120.091 136.719C120.661 137.289 121.45 137.574 122.458 137.574C123.294 137.574 124.06 137.488 124.755 137.316C125.45 137.145 126.165 136.887 126.9 136.543V139.309C126.251 139.629 125.571 139.863 124.86 140.012C124.157 140.16 123.302 140.234 122.294 140.234C120.982 140.234 119.817 139.992 118.802 139.508C117.794 139.023 117.001 138.285 116.423 137.293C115.853 136.301 115.567 135.051 115.567 133.543C115.567 132.012 115.825 130.738 116.341 129.723C116.864 128.699 117.591 127.934 118.521 127.426C119.45 126.91 120.532 126.652 121.767 126.652ZM121.79 129.195C121.095 129.195 120.517 129.418 120.056 129.863C119.603 130.309 119.341 131.008 119.271 131.961H124.286C124.278 131.43 124.181 130.957 123.993 130.543C123.814 130.129 123.54 129.801 123.173 129.559C122.814 129.316 122.353 129.195 121.79 129.195ZM133.398 126.898V140H129.824V126.898H133.398ZM131.617 121.766C132.148 121.766 132.605 121.891 132.988 122.141C133.371 122.383 133.562 122.84 133.562 123.512C133.562 124.176 133.371 124.637 132.988 124.895C132.605 125.145 132.148 125.27 131.617 125.27C131.078 125.27 130.617 125.145 130.234 124.895C129.859 124.637 129.672 124.176 129.672 123.512C129.672 122.84 129.859 122.383 130.234 122.141C130.617 121.891 131.078 121.766 131.617 121.766ZM139.557 140L134.565 126.898H138.303L140.835 134.363C140.975 134.801 141.085 135.262 141.163 135.746C141.249 136.23 141.307 136.664 141.338 137.047H141.432C141.456 136.633 141.51 136.191 141.596 135.723C141.69 135.254 141.811 134.801 141.96 134.363L144.479 126.898H148.217L143.225 140H139.557ZM154.786 126.652C155.997 126.652 157.04 126.887 157.915 127.355C158.79 127.816 159.466 128.488 159.943 129.371C160.419 130.254 160.658 131.332 160.658 132.605V134.34H152.208C152.247 135.348 152.548 136.141 153.111 136.719C153.681 137.289 154.47 137.574 155.478 137.574C156.314 137.574 157.079 137.488 157.775 137.316C158.47 137.145 159.185 136.887 159.919 136.543V139.309C159.271 139.629 158.591 139.863 157.88 140.012C157.177 140.16 156.322 140.234 155.314 140.234C154.001 140.234 152.837 139.992 151.822 139.508C150.814 139.023 150.021 138.285 149.443 137.293C148.872 136.301 148.587 135.051 148.587 133.543C148.587 132.012 148.845 130.738 149.361 129.723C149.884 128.699 150.611 127.934 151.54 127.426C152.47 126.91 153.552 126.652 154.786 126.652ZM154.81 129.195C154.115 129.195 153.536 129.418 153.075 129.863C152.622 130.309 152.361 131.008 152.29 131.961H157.306C157.298 131.43 157.2 130.957 157.013 130.543C156.833 130.129 156.56 129.801 156.193 129.559C155.833 129.316 155.372 129.195 154.81 129.195ZM166.992 140.234C165.531 140.234 164.34 139.664 163.418 138.523C162.504 137.375 162.047 135.691 162.047 133.473C162.047 131.23 162.512 129.535 163.441 128.387C164.371 127.23 165.586 126.652 167.086 126.652C167.711 126.652 168.262 126.738 168.738 126.91C169.215 127.082 169.625 127.312 169.969 127.602C170.32 127.891 170.617 128.215 170.859 128.574H170.977C170.93 128.324 170.871 127.957 170.801 127.473C170.738 126.98 170.707 126.477 170.707 125.961V121.766H174.293V140H171.551L170.859 138.301H170.707C170.48 138.66 170.195 138.988 169.852 139.285C169.516 139.574 169.113 139.805 168.645 139.977C168.176 140.148 167.625 140.234 166.992 140.234ZM168.246 137.387C169.223 137.387 169.91 137.098 170.309 136.52C170.715 135.934 170.93 135.055 170.953 133.883V133.496C170.953 132.223 170.758 131.25 170.367 130.578C169.977 129.898 169.25 129.559 168.188 129.559C167.398 129.559 166.781 129.898 166.336 130.578C165.891 131.258 165.668 132.238 165.668 133.52C165.668 134.801 165.891 135.766 166.336 136.414C166.789 137.062 167.426 137.387 168.246 137.387ZM189.716 140H186.083V125.891H181.431V122.867H194.369V125.891H189.716V140ZM199.578 121.766V125.48C199.578 126.129 199.555 126.746 199.508 127.332C199.469 127.918 199.438 128.332 199.414 128.574H199.602C199.883 128.121 200.215 127.754 200.598 127.473C200.988 127.191 201.418 126.984 201.887 126.852C202.356 126.719 202.86 126.652 203.399 126.652C204.344 126.652 205.168 126.82 205.871 127.156C206.574 127.484 207.121 128.004 207.512 128.715C207.902 129.418 208.098 130.332 208.098 131.457V140H204.524V132.348C204.524 131.41 204.352 130.703 204.008 130.227C203.664 129.75 203.133 129.512 202.414 129.512C201.695 129.512 201.129 129.68 200.715 130.016C200.301 130.344 200.008 130.832 199.836 131.48C199.664 132.121 199.578 132.906 199.578 133.836V140H196.004V121.766H199.578ZM216.46 126.652C217.671 126.652 218.714 126.887 219.589 127.355C220.464 127.816 221.14 128.488 221.616 129.371C222.093 130.254 222.331 131.332 222.331 132.605V134.34H213.882C213.921 135.348 214.222 136.141 214.784 136.719C215.354 137.289 216.143 137.574 217.151 137.574C217.987 137.574 218.753 137.488 219.448 137.316C220.143 137.145 220.858 136.887 221.593 136.543V139.309C220.944 139.629 220.265 139.863 219.554 140.012C218.85 140.16 217.995 140.234 216.987 140.234C215.675 140.234 214.511 139.992 213.495 139.508C212.487 139.023 211.694 138.285 211.116 137.293C210.546 136.301 210.261 135.051 210.261 133.543C210.261 132.012 210.518 130.738 211.034 129.723C211.557 128.699 212.284 127.934 213.214 127.426C214.143 126.91 215.225 126.652 216.46 126.652ZM216.483 129.195C215.788 129.195 215.21 129.418 214.749 129.863C214.296 130.309 214.034 131.008 213.964 131.961H218.979C218.972 131.43 218.874 130.957 218.686 130.543C218.507 130.129 218.233 129.801 217.866 129.559C217.507 129.316 217.046 129.195 216.483 129.195ZM245.864 131.41C245.864 132.73 245.7 133.934 245.371 135.02C245.043 136.098 244.543 137.027 243.871 137.809C243.207 138.59 242.364 139.191 241.34 139.613C240.317 140.027 239.106 140.234 237.707 140.234C236.309 140.234 235.098 140.027 234.075 139.613C233.051 139.191 232.203 138.59 231.532 137.809C230.867 137.027 230.371 136.094 230.043 135.008C229.715 133.922 229.551 132.715 229.551 131.387C229.551 129.613 229.84 128.07 230.418 126.758C231.004 125.438 231.903 124.414 233.114 123.688C234.325 122.961 235.864 122.598 237.731 122.598C239.59 122.598 241.117 122.961 242.313 123.688C243.516 124.414 244.407 125.438 244.985 126.758C245.571 128.078 245.864 129.629 245.864 131.41ZM233.36 131.41C233.36 132.605 233.508 133.637 233.805 134.504C234.11 135.363 234.582 136.027 235.223 136.496C235.864 136.957 236.692 137.188 237.707 137.188C238.739 137.188 239.575 136.957 240.215 136.496C240.856 136.027 241.321 135.363 241.61 134.504C241.907 133.637 242.055 132.605 242.055 131.41C242.055 129.613 241.719 128.199 241.047 127.168C240.375 126.137 239.27 125.621 237.731 125.621C236.707 125.621 235.871 125.855 235.223 126.324C234.582 126.785 234.11 127.449 233.805 128.316C233.508 129.176 233.36 130.207 233.36 131.41ZM255.726 126.652C255.905 126.652 256.112 126.664 256.347 126.688C256.589 126.703 256.784 126.727 256.933 126.758L256.663 130.109C256.546 130.07 256.378 130.043 256.159 130.027C255.948 130.004 255.765 129.992 255.608 129.992C255.147 129.992 254.698 130.051 254.261 130.168C253.831 130.285 253.444 130.477 253.101 130.742C252.757 131 252.483 131.344 252.28 131.773C252.085 132.195 251.987 132.715 251.987 133.332V140H248.413V126.898H251.12L251.647 129.102H251.823C252.081 128.656 252.401 128.25 252.784 127.883C253.175 127.508 253.616 127.211 254.108 126.992C254.608 126.766 255.147 126.652 255.726 126.652ZM262.74 140.234C261.279 140.234 260.088 139.664 259.166 138.523C258.252 137.375 257.795 135.691 257.795 133.473C257.795 131.23 258.26 129.535 259.189 128.387C260.119 127.23 261.334 126.652 262.834 126.652C263.459 126.652 264.01 126.738 264.486 126.91C264.963 127.082 265.373 127.312 265.717 127.602C266.068 127.891 266.365 128.215 266.607 128.574H266.724C266.677 128.324 266.619 127.957 266.549 127.473C266.486 126.98 266.455 126.477 266.455 125.961V121.766H270.041V140H267.299L266.607 138.301H266.455C266.228 138.66 265.943 138.988 265.599 139.285C265.263 139.574 264.861 139.805 264.392 139.977C263.924 140.148 263.373 140.234 262.74 140.234ZM263.994 137.387C264.97 137.387 265.658 137.098 266.056 136.52C266.463 135.934 266.677 135.055 266.701 133.883V133.496C266.701 132.223 266.506 131.25 266.115 130.578C265.724 129.898 264.998 129.559 263.935 129.559C263.146 129.559 262.529 129.898 262.084 130.578C261.638 131.258 261.416 132.238 261.416 133.52C261.416 134.801 261.638 135.766 262.084 136.414C262.537 137.062 263.174 137.387 263.994 137.387ZM278.461 126.652C279.672 126.652 280.715 126.887 281.59 127.355C282.465 127.816 283.141 128.488 283.618 129.371C284.094 130.254 284.333 131.332 284.333 132.605V134.34H275.883C275.922 135.348 276.223 136.141 276.786 136.719C277.356 137.289 278.145 137.574 279.153 137.574C279.989 137.574 280.754 137.488 281.45 137.316C282.145 137.145 282.86 136.887 283.594 136.543V139.309C282.946 139.629 282.266 139.863 281.555 140.012C280.852 140.16 279.997 140.234 278.989 140.234C277.676 140.234 276.512 139.992 275.497 139.508C274.489 139.023 273.696 138.285 273.118 137.293C272.547 136.301 272.262 135.051 272.262 133.543C272.262 132.012 272.52 130.738 273.036 129.723C273.559 128.699 274.286 127.934 275.215 127.426C276.145 126.91 277.227 126.652 278.461 126.652ZM278.485 129.195C277.79 129.195 277.211 129.418 276.75 129.863C276.297 130.309 276.036 131.008 275.965 131.961H280.981C280.973 131.43 280.875 130.957 280.688 130.543C280.508 130.129 280.235 129.801 279.868 129.559C279.508 129.316 279.047 129.195 278.485 129.195ZM293.831 126.652C294.011 126.652 294.218 126.664 294.452 126.688C294.695 126.703 294.89 126.727 295.038 126.758L294.769 130.109C294.652 130.07 294.484 130.043 294.265 130.027C294.054 130.004 293.87 129.992 293.714 129.992C293.253 129.992 292.804 130.051 292.366 130.168C291.937 130.285 291.55 130.477 291.206 130.742C290.862 131 290.589 131.344 290.386 131.773C290.191 132.195 290.093 132.715 290.093 133.332V140H286.519V126.898H289.226L289.753 129.102H289.929C290.187 128.656 290.507 128.25 290.89 127.883C291.28 127.508 291.722 127.211 292.214 126.992C292.714 126.766 293.253 126.652 293.831 126.652ZM299.697 134.316H296.838L296.24 122.867H300.295L299.697 134.316ZM296.193 138.324C296.193 137.59 296.393 137.074 296.791 136.777C297.197 136.48 297.685 136.332 298.256 136.332C298.81 136.332 299.287 136.48 299.685 136.777C300.092 137.074 300.295 137.59 300.295 138.324C300.295 139.027 300.092 139.535 299.685 139.848C299.287 140.16 298.81 140.316 298.256 140.316C297.685 140.316 297.197 140.16 296.791 139.848C296.393 139.535 296.193 139.027 296.193 138.324Z" fill="#121212"/>
<path d="M115.555 165.953V166.672C115.555 167.526 115.448 168.292 115.234 168.969C115.021 169.646 114.714 170.221 114.312 170.695C113.911 171.169 113.43 171.531 112.867 171.781C112.31 172.031 111.685 172.156 110.992 172.156C110.32 172.156 109.703 172.031 109.141 171.781C108.583 171.531 108.099 171.169 107.688 170.695C107.281 170.221 106.966 169.646 106.742 168.969C106.518 168.292 106.406 167.526 106.406 166.672V165.953C106.406 165.099 106.516 164.336 106.734 163.664C106.958 162.987 107.273 162.411 107.68 161.938C108.086 161.458 108.568 161.094 109.125 160.844C109.688 160.594 110.305 160.469 110.977 160.469C111.669 160.469 112.294 160.594 112.852 160.844C113.414 161.094 113.896 161.458 114.297 161.938C114.703 162.411 115.013 162.987 115.227 163.664C115.445 164.336 115.555 165.099 115.555 165.953ZM114.062 166.672V165.938C114.062 165.26 113.992 164.661 113.852 164.141C113.716 163.62 113.516 163.182 113.25 162.828C112.984 162.474 112.659 162.206 112.273 162.023C111.893 161.841 111.461 161.75 110.977 161.75C110.508 161.75 110.083 161.841 109.703 162.023C109.328 162.206 109.005 162.474 108.734 162.828C108.469 163.182 108.263 163.62 108.117 164.141C107.971 164.661 107.898 165.26 107.898 165.938V166.672C107.898 167.354 107.971 167.958 108.117 168.484C108.263 169.005 108.471 169.445 108.742 169.805C109.018 170.159 109.344 170.427 109.719 170.609C110.099 170.792 110.523 170.883 110.992 170.883C111.482 170.883 111.917 170.792 112.297 170.609C112.677 170.427 112.997 170.159 113.258 169.805C113.523 169.445 113.724 169.005 113.859 168.484C113.995 167.958 114.062 167.354 114.062 166.672ZM119.039 164.875V172H117.594V163.547H119L119.039 164.875ZM121.68 163.5L121.672 164.844C121.552 164.818 121.438 164.802 121.328 164.797C121.224 164.786 121.104 164.781 120.969 164.781C120.635 164.781 120.341 164.833 120.086 164.938C119.831 165.042 119.615 165.188 119.438 165.375C119.26 165.562 119.12 165.786 119.016 166.047C118.917 166.302 118.852 166.583 118.82 166.891L118.414 167.125C118.414 166.615 118.464 166.135 118.562 165.688C118.667 165.24 118.826 164.844 119.039 164.5C119.253 164.151 119.523 163.88 119.852 163.688C120.185 163.49 120.581 163.391 121.039 163.391C121.143 163.391 121.263 163.404 121.398 163.43C121.534 163.451 121.628 163.474 121.68 163.5ZM128.188 170.359V160H129.641V172H128.312L128.188 170.359ZM122.5 167.867V167.703C122.5 167.057 122.578 166.471 122.734 165.945C122.896 165.414 123.122 164.958 123.414 164.578C123.711 164.198 124.062 163.906 124.469 163.703C124.88 163.495 125.339 163.391 125.844 163.391C126.375 163.391 126.839 163.484 127.234 163.672C127.635 163.854 127.974 164.122 128.25 164.477C128.531 164.826 128.753 165.247 128.914 165.742C129.076 166.237 129.188 166.797 129.25 167.422V168.141C129.193 168.76 129.081 169.318 128.914 169.812C128.753 170.307 128.531 170.729 128.25 171.078C127.974 171.427 127.635 171.695 127.234 171.883C126.833 172.065 126.365 172.156 125.828 172.156C125.333 172.156 124.88 172.049 124.469 171.836C124.062 171.622 123.711 171.323 123.414 170.938C123.122 170.552 122.896 170.099 122.734 169.578C122.578 169.052 122.5 168.482 122.5 167.867ZM123.953 167.703V167.867C123.953 168.289 123.995 168.685 124.078 169.055C124.167 169.424 124.302 169.75 124.484 170.031C124.667 170.312 124.898 170.534 125.18 170.695C125.461 170.852 125.797 170.93 126.188 170.93C126.667 170.93 127.06 170.828 127.367 170.625C127.68 170.422 127.93 170.154 128.117 169.82C128.305 169.487 128.451 169.125 128.555 168.734V166.852C128.492 166.565 128.401 166.289 128.281 166.023C128.167 165.753 128.016 165.513 127.828 165.305C127.646 165.091 127.419 164.922 127.148 164.797C126.883 164.672 126.568 164.609 126.203 164.609C125.807 164.609 125.466 164.693 125.18 164.859C124.898 165.021 124.667 165.245 124.484 165.531C124.302 165.812 124.167 166.141 124.078 166.516C123.995 166.885 123.953 167.281 123.953 167.703ZM135.398 172.156C134.81 172.156 134.276 172.057 133.797 171.859C133.323 171.656 132.914 171.372 132.57 171.008C132.232 170.643 131.971 170.211 131.789 169.711C131.607 169.211 131.516 168.664 131.516 168.07V167.742C131.516 167.055 131.617 166.443 131.82 165.906C132.023 165.365 132.299 164.906 132.648 164.531C132.997 164.156 133.393 163.872 133.836 163.68C134.279 163.487 134.737 163.391 135.211 163.391C135.815 163.391 136.336 163.495 136.773 163.703C137.216 163.911 137.578 164.203 137.859 164.578C138.141 164.948 138.349 165.385 138.484 165.891C138.62 166.391 138.688 166.938 138.688 167.531V168.18H132.375V167H137.242V166.891C137.221 166.516 137.143 166.151 137.008 165.797C136.878 165.443 136.669 165.151 136.383 164.922C136.096 164.693 135.706 164.578 135.211 164.578C134.883 164.578 134.581 164.648 134.305 164.789C134.029 164.924 133.792 165.128 133.594 165.398C133.396 165.669 133.242 166 133.133 166.391C133.023 166.781 132.969 167.232 132.969 167.742V168.07C132.969 168.471 133.023 168.849 133.133 169.203C133.247 169.552 133.411 169.859 133.625 170.125C133.844 170.391 134.107 170.599 134.414 170.75C134.727 170.901 135.081 170.977 135.477 170.977C135.987 170.977 136.419 170.872 136.773 170.664C137.128 170.456 137.438 170.177 137.703 169.828L138.578 170.523C138.396 170.799 138.164 171.062 137.883 171.312C137.602 171.562 137.255 171.766 136.844 171.922C136.438 172.078 135.956 172.156 135.398 172.156ZM141.82 164.875V172H140.375V163.547H141.781L141.82 164.875ZM144.461 163.5L144.453 164.844C144.333 164.818 144.219 164.802 144.109 164.797C144.005 164.786 143.885 164.781 143.75 164.781C143.417 164.781 143.122 164.833 142.867 164.938C142.612 165.042 142.396 165.188 142.219 165.375C142.042 165.562 141.901 165.786 141.797 166.047C141.698 166.302 141.633 166.583 141.602 166.891L141.195 167.125C141.195 166.615 141.245 166.135 141.344 165.688C141.448 165.24 141.607 164.844 141.82 164.5C142.034 164.151 142.305 163.88 142.633 163.688C142.966 163.49 143.362 163.391 143.82 163.391C143.924 163.391 144.044 163.404 144.18 163.43C144.315 163.451 144.409 163.474 144.461 163.5ZM150.844 172L153.055 160.625H154.18L151.961 172H150.844ZM154.023 172L156.242 160.625H157.359L155.141 172H154.023ZM158.312 164.961H150.188V163.875H158.312V164.961ZM157.727 168.797H149.594V167.719H157.727V168.797ZM166.922 170.812V172H159.477V170.961L163.203 166.812C163.661 166.302 164.016 165.87 164.266 165.516C164.521 165.156 164.698 164.836 164.797 164.555C164.901 164.268 164.953 163.977 164.953 163.68C164.953 163.305 164.875 162.966 164.719 162.664C164.568 162.357 164.344 162.112 164.047 161.93C163.75 161.747 163.391 161.656 162.969 161.656C162.464 161.656 162.042 161.755 161.703 161.953C161.37 162.146 161.12 162.417 160.953 162.766C160.786 163.115 160.703 163.516 160.703 163.969H159.258C159.258 163.328 159.398 162.742 159.68 162.211C159.961 161.68 160.378 161.258 160.93 160.945C161.482 160.628 162.161 160.469 162.969 160.469C163.688 160.469 164.302 160.596 164.812 160.852C165.323 161.102 165.714 161.456 165.984 161.914C166.26 162.367 166.398 162.898 166.398 163.508C166.398 163.841 166.341 164.18 166.227 164.523C166.117 164.862 165.964 165.201 165.766 165.539C165.573 165.878 165.346 166.211 165.086 166.539C164.831 166.867 164.557 167.19 164.266 167.508L161.219 170.812H166.922ZM169.906 170.789H170.055C170.888 170.789 171.565 170.672 172.086 170.438C172.607 170.203 173.008 169.888 173.289 169.492C173.57 169.096 173.763 168.651 173.867 168.156C173.971 167.656 174.023 167.143 174.023 166.617V164.875C174.023 164.359 173.964 163.901 173.844 163.5C173.729 163.099 173.568 162.763 173.359 162.492C173.156 162.221 172.924 162.016 172.664 161.875C172.404 161.734 172.128 161.664 171.836 161.664C171.503 161.664 171.203 161.732 170.938 161.867C170.677 161.997 170.456 162.182 170.273 162.422C170.096 162.661 169.961 162.943 169.867 163.266C169.773 163.589 169.727 163.94 169.727 164.32C169.727 164.659 169.768 164.987 169.852 165.305C169.935 165.622 170.062 165.909 170.234 166.164C170.406 166.419 170.62 166.622 170.875 166.773C171.135 166.919 171.44 166.992 171.789 166.992C172.112 166.992 172.414 166.93 172.695 166.805C172.982 166.674 173.234 166.5 173.453 166.281C173.677 166.057 173.854 165.805 173.984 165.523C174.12 165.242 174.198 164.948 174.219 164.641H174.906C174.906 165.073 174.82 165.5 174.648 165.922C174.482 166.339 174.247 166.719 173.945 167.062C173.643 167.406 173.289 167.682 172.883 167.891C172.477 168.094 172.034 168.195 171.555 168.195C170.992 168.195 170.505 168.086 170.094 167.867C169.682 167.648 169.344 167.357 169.078 166.992C168.818 166.628 168.622 166.221 168.492 165.773C168.367 165.32 168.305 164.862 168.305 164.398C168.305 163.857 168.38 163.349 168.531 162.875C168.682 162.401 168.906 161.984 169.203 161.625C169.5 161.26 169.867 160.977 170.305 160.773C170.747 160.57 171.258 160.469 171.836 160.469C172.487 160.469 173.042 160.599 173.5 160.859C173.958 161.12 174.331 161.469 174.617 161.906C174.909 162.344 175.122 162.836 175.258 163.383C175.393 163.93 175.461 164.492 175.461 165.07V165.594C175.461 166.182 175.422 166.781 175.344 167.391C175.271 167.995 175.128 168.573 174.914 169.125C174.706 169.677 174.401 170.172 174 170.609C173.599 171.042 173.076 171.385 172.43 171.641C171.789 171.891 170.997 172.016 170.055 172.016H169.906V170.789ZM179.578 165.602H180.609C181.115 165.602 181.531 165.518 181.859 165.352C182.193 165.18 182.44 164.948 182.602 164.656C182.768 164.359 182.852 164.026 182.852 163.656C182.852 163.219 182.779 162.852 182.633 162.555C182.487 162.258 182.268 162.034 181.977 161.883C181.685 161.732 181.315 161.656 180.867 161.656C180.461 161.656 180.102 161.737 179.789 161.898C179.482 162.055 179.24 162.279 179.062 162.57C178.891 162.862 178.805 163.206 178.805 163.602H177.359C177.359 163.023 177.505 162.497 177.797 162.023C178.089 161.549 178.497 161.172 179.023 160.891C179.555 160.609 180.169 160.469 180.867 160.469C181.555 160.469 182.156 160.591 182.672 160.836C183.188 161.076 183.589 161.435 183.875 161.914C184.161 162.388 184.305 162.979 184.305 163.688C184.305 163.974 184.237 164.281 184.102 164.609C183.971 164.932 183.766 165.234 183.484 165.516C183.208 165.797 182.849 166.029 182.406 166.211C181.964 166.388 181.432 166.477 180.812 166.477H179.578V165.602ZM179.578 166.789V165.922H180.812C181.536 165.922 182.135 166.008 182.609 166.18C183.083 166.352 183.456 166.581 183.727 166.867C184.003 167.154 184.195 167.469 184.305 167.812C184.419 168.151 184.477 168.49 184.477 168.828C184.477 169.359 184.385 169.831 184.203 170.242C184.026 170.654 183.773 171.003 183.445 171.289C183.122 171.576 182.742 171.792 182.305 171.938C181.867 172.083 181.391 172.156 180.875 172.156C180.38 172.156 179.914 172.086 179.477 171.945C179.044 171.805 178.661 171.602 178.328 171.336C177.995 171.065 177.734 170.734 177.547 170.344C177.359 169.948 177.266 169.497 177.266 168.992H178.711C178.711 169.388 178.797 169.734 178.969 170.031C179.146 170.328 179.396 170.56 179.719 170.727C180.047 170.888 180.432 170.969 180.875 170.969C181.318 170.969 181.698 170.893 182.016 170.742C182.339 170.586 182.586 170.352 182.758 170.039C182.935 169.727 183.023 169.333 183.023 168.859C183.023 168.385 182.924 167.997 182.727 167.695C182.529 167.388 182.247 167.161 181.883 167.016C181.523 166.865 181.099 166.789 180.609 166.789H179.578ZM193.609 165.406V167.141C193.609 168.073 193.526 168.859 193.359 169.5C193.193 170.141 192.953 170.656 192.641 171.047C192.328 171.438 191.951 171.721 191.508 171.898C191.07 172.07 190.576 172.156 190.023 172.156C189.586 172.156 189.182 172.102 188.812 171.992C188.443 171.883 188.109 171.708 187.812 171.469C187.521 171.224 187.271 170.906 187.062 170.516C186.854 170.125 186.695 169.651 186.586 169.094C186.477 168.536 186.422 167.885 186.422 167.141V165.406C186.422 164.474 186.505 163.693 186.672 163.062C186.844 162.432 187.086 161.927 187.398 161.547C187.711 161.161 188.086 160.885 188.523 160.719C188.966 160.552 189.461 160.469 190.008 160.469C190.451 160.469 190.857 160.523 191.227 160.633C191.602 160.737 191.935 160.906 192.227 161.141C192.518 161.37 192.766 161.677 192.969 162.062C193.177 162.443 193.336 162.909 193.445 163.461C193.555 164.013 193.609 164.661 193.609 165.406ZM192.156 167.375V165.164C192.156 164.654 192.125 164.206 192.062 163.82C192.005 163.43 191.919 163.096 191.805 162.82C191.69 162.544 191.544 162.32 191.367 162.148C191.195 161.977 190.995 161.852 190.766 161.773C190.542 161.69 190.289 161.648 190.008 161.648C189.664 161.648 189.359 161.714 189.094 161.844C188.828 161.969 188.604 162.169 188.422 162.445C188.245 162.721 188.109 163.083 188.016 163.531C187.922 163.979 187.875 164.523 187.875 165.164V167.375C187.875 167.885 187.904 168.336 187.961 168.727C188.023 169.117 188.115 169.456 188.234 169.742C188.354 170.023 188.5 170.255 188.672 170.438C188.844 170.62 189.042 170.755 189.266 170.844C189.495 170.927 189.747 170.969 190.023 170.969C190.378 170.969 190.688 170.901 190.953 170.766C191.219 170.63 191.44 170.419 191.617 170.133C191.799 169.841 191.935 169.469 192.023 169.016C192.112 168.557 192.156 168.01 192.156 167.375ZM197.297 166.586L196.141 166.289L196.711 160.625H202.547V161.961H197.938L197.594 165.055C197.802 164.935 198.065 164.823 198.383 164.719C198.706 164.615 199.076 164.562 199.492 164.562C200.018 164.562 200.49 164.654 200.906 164.836C201.323 165.013 201.677 165.268 201.969 165.602C202.266 165.935 202.492 166.336 202.648 166.805C202.805 167.273 202.883 167.797 202.883 168.375C202.883 168.922 202.807 169.424 202.656 169.883C202.51 170.341 202.289 170.742 201.992 171.086C201.695 171.424 201.32 171.688 200.867 171.875C200.419 172.062 199.891 172.156 199.281 172.156C198.823 172.156 198.388 172.094 197.977 171.969C197.57 171.839 197.206 171.643 196.883 171.383C196.565 171.117 196.305 170.789 196.102 170.398C195.904 170.003 195.779 169.539 195.727 169.008H197.102C197.164 169.435 197.289 169.794 197.477 170.086C197.664 170.378 197.909 170.599 198.211 170.75C198.518 170.896 198.875 170.969 199.281 170.969C199.625 170.969 199.93 170.909 200.195 170.789C200.461 170.669 200.685 170.497 200.867 170.273C201.049 170.049 201.188 169.779 201.281 169.461C201.38 169.143 201.43 168.786 201.43 168.391C201.43 168.031 201.38 167.698 201.281 167.391C201.182 167.083 201.034 166.815 200.836 166.586C200.643 166.357 200.406 166.18 200.125 166.055C199.844 165.924 199.521 165.859 199.156 165.859C198.672 165.859 198.305 165.924 198.055 166.055C197.81 166.185 197.557 166.362 197.297 166.586ZM212.156 168.172V169.359H203.938V168.508L209.031 160.625H210.211L208.945 162.906L205.578 168.172H212.156ZM210.57 160.625V172H209.125V160.625H210.57ZM218.219 160.562V172H216.773V162.367L213.859 163.43V162.125L217.992 160.562H218.219Z" fill="#A6A6A6"/>
<defs>
<linearGradient id="paint0_linear_279_3405" x1="163.5" y1="13" x2="163.5" y2="91" gradientUnits="userSpaceOnUse">
<stop stop-color="#EFD7DE"/>
<stop offset="1" stop-color="#ECDADF" stop-opacity="0"/>
</linearGradient>
</defs>
</svg>
